<svg xmlns="http://www.w3.org/2000/svg" width="820" height="410" viewBox="0 0 820 410" font-family="PingFang SC,Microsoft YaHei,sans-serif"><rect width="820" height="410" fill="#fff"/><text x="410.0" y="22" font-size="15" font-weight="600" fill="#222" text-anchor="middle">城市 Top10（岗位出现次数占比）</text><text x="158" y="52.2" font-size="13" fill="#333" text-anchor="end">London</text><rect x="170" y="38" width="560" height="18" rx="3" fill="#f0f2f5"/><rect x="170" y="38" width="560.0" height="18" rx="3" fill="#4e79a7"/><text x="738.0" y="52.2" font-size="12.5" fill="#555">18%</text><text x="158" y="88.2" font-size="13" fill="#333" text-anchor="end">New York</text><rect x="170" y="74" width="560" height="18" rx="3" fill="#f0f2f5"/><rect x="170" y="74" width="435.6" height="18" rx="3" fill="#4e79a7"/><text x="613.6" y="88.2" font-size="12.5" fill="#555">14%</text><text x="158" y="124.2" font-size="13" fill="#333" text-anchor="end">Chicago</text><rect x="170" y="110" width="560" height="18" rx="3" fill="#f0f2f5"/><rect x="170" y="110" width="248.9" height="18" rx="3" fill="#4e79a7"/><text x="426.9" y="124.2" font-size="12.5" fill="#555">8%</text><text x="158" y="160.2" font-size="13" fill="#333" text-anchor="end">Hong Kong</text><rect x="170" y="146" width="560" height="18" rx="3" fill="#f0f2f5"/><rect x="170" y="146" width="124.4" height="18" rx="3" fill="#4e79a7"/><text x="302.4" y="160.2" font-size="12.5" fill="#555">4%</text><text x="158" y="196.2" font-size="13" fill="#333" text-anchor="end">Singapore</text><rect x="170" y="182" width="560" height="18" rx="3" fill="#f0f2f5"/><rect x="170" y="182" width="93.3" height="18" rx="3" fill="#4e79a7"/><text x="271.3" y="196.2" font-size="12.5" fill="#555">3%</text><text x="158" y="232.2" font-size="13" fill="#333" text-anchor="end">Stamford</text><rect x="170" y="218" width="560" height="18" rx="3" fill="#f0f2f5"/><rect x="170" y="218" width="62.2" height="18" rx="3" fill="#4e79a7"/><text x="240.2" y="232.2" font-size="12.5" fill="#555">2%</text><text x="158" y="268.2" font-size="13" fill="#333" text-anchor="end">Ho Chi Minh City</text><rect x="170" y="254" width="560" height="18" rx="3" fill="#f0f2f5"/><rect x="170" y="254" width="62.2" height="18" rx="3" fill="#4e79a7"/><text x="240.2" y="268.2" font-size="12.5" fill="#555">2%</text><text x="158" y="304.2" font-size="13" fill="#333" text-anchor="end">Budapest</text><rect x="170" y="290" width="560" height="18" rx="3" fill="#f0f2f5"/><rect x="170" y="290" width="62.2" height="18" rx="3" fill="#4e79a7"/><text x="240.2" y="304.2" font-size="12.5" fill="#555">2%</text><text x="158" y="340.2" font-size="13" fill="#333" text-anchor="end">Hanoi</text><rect x="170" y="326" width="560" height="18" rx="3" fill="#f0f2f5"/><rect x="170" y="326" width="62.2" height="18" rx="3" fill="#4e79a7"/><text x="240.2" y="340.2" font-size="12.5" fill="#555">2%</text><text x="158" y="376.2" font-size="13" fill="#333" text-anchor="end">Greenwich</text><rect x="170" y="362" width="560" height="18" rx="3" fill="#f0f2f5"/><rect x="170" y="362" width="62.2" height="18" rx="3" fill="#4e79a7"/><text x="240.2" y="376.2" font-size="12.5" fill="#555">2%</text></svg>