<svg xmlns="http://www.w3.org/2000/svg" width="760" height="370" viewBox="0 0 760 370" font-family="PingFang SC,Microsoft YaHei,sans-serif"><rect width="760" height="370" fill="#fff"/><text x="380.0" y="21" font-size="15" font-weight="600" fill="#222" text-anchor="middle">资历结构（%）</text><g transform="translate(0,30)"><path d="M150.0,30.0 A120.0,120.0 0 1 1 32.3,173.3 L76.4,164.6 A75.0,75.0 0 1 0 150.0,75.0 Z" fill="#4e79a7" stroke="#fff" stroke-width="1.5"/><path d="M32.3,173.3 A120.0,120.0 0 0 1 80.9,51.9 L106.8,88.7 A75.0,75.0 0 0 0 76.4,164.6 Z" fill="#f28e2b" stroke="#fff" stroke-width="1.5"/><path d="M80.9,51.9 A120.0,120.0 0 0 1 128.9,31.9 L136.8,76.2 A75.0,75.0 0 0 0 106.8,88.7 Z" fill="#e15759" stroke="#fff" stroke-width="1.5"/><path d="M128.9,31.9 A120.0,120.0 0 0 1 150.0,30.0 L150.0,75.0 A75.0,75.0 0 0 0 136.8,76.2 Z" fill="#76b7b2" stroke="#fff" stroke-width="1.5"/><rect x="330" y="32" width="12" height="12" rx="2" fill="#4e79a7"/><text x="350" y="42" font-size="13" fill="#333">常规</text><text x="738" y="42" font-size="13" fill="#666" text-anchor="end">537 · 72%</text><rect x="330" y="58" width="12" height="12" rx="2" fill="#f28e2b"/><text x="350" y="68" font-size="13" fill="#333">资深/管理</text><text x="738" y="68" font-size="13" fill="#666" text-anchor="end">137 · 18%</text><rect x="330" y="84" width="12" height="12" rx="2" fill="#e15759"/><text x="350" y="94" font-size="13" fill="#333">实习</text><text x="738" y="94" font-size="13" fill="#666" text-anchor="end">52 · 7%</text><rect x="330" y="110" width="12" height="12" rx="2" fill="#76b7b2"/><text x="350" y="120" font-size="13" fill="#333">应届/初级</text><text x="738" y="120" font-size="13" fill="#666" text-anchor="end">21 · 3%</text></g></svg>